<mxfile host="app.diagrams.net" modified="2022-05-26T02:53:25.067Z" agent="5.0 (Macintosh; Intel Mac OS X 10_15_7) AppleWebKit/537.36 (KHTML, like Gecko) Chrome/99.0.4844.83 Safari/537.36" etag="wVAPyoWR5auKr3EPgSpd" version="18.1.2" type="github">
  <diagram id="fKKmtcQ6YT8GMMPOc77P" name="Page-1">
    <mxGraphModel dx="1426" dy="709" grid="1" gridSize="10" guides="1" tooltips="1" connect="1" arrows="1" fold="1" page="1" pageScale="1" pageWidth="827" pageHeight="1169" math="0" shadow="0">
      <root>
        <mxCell id="0" />
        <mxCell id="1" parent="0" />
        <mxCell id="Ym4Ry7hjg_As4kxl7nmE-20" value="" style="rounded=0;whiteSpace=wrap;html=1;fontSize=26;" vertex="1" parent="1">
          <mxGeometry x="49" y="242.5" width="220" height="295" as="geometry" />
        </mxCell>
        <mxCell id="Ym4Ry7hjg_As4kxl7nmE-22" style="edgeStyle=orthogonalEdgeStyle;rounded=0;orthogonalLoop=1;jettySize=auto;html=1;fontSize=26;startArrow=none;startFill=0;endArrow=classic;endFill=1;strokeColor=#3333FF;strokeWidth=4;entryX=1;entryY=0.669;entryDx=0;entryDy=0;entryPerimeter=0;" edge="1" parent="1" target="Ym4Ry7hjg_As4kxl7nmE-20">
          <mxGeometry relative="1" as="geometry">
            <mxPoint x="639" y="440" as="sourcePoint" />
            <mxPoint x="329" y="430" as="targetPoint" />
            <Array as="points" />
          </mxGeometry>
        </mxCell>
        <mxCell id="Ym4Ry7hjg_As4kxl7nmE-18" value="" style="rounded=0;whiteSpace=wrap;html=1;fontSize=26;" vertex="1" parent="1">
          <mxGeometry x="570" y="252.5" width="209" height="287.5" as="geometry" />
        </mxCell>
        <mxCell id="Ym4Ry7hjg_As4kxl7nmE-23" style="edgeStyle=orthogonalEdgeStyle;rounded=0;orthogonalLoop=1;jettySize=auto;html=1;exitX=0.25;exitY=1;exitDx=0;exitDy=0;entryX=1;entryY=0.453;entryDx=0;entryDy=0;entryPerimeter=0;fontSize=26;startArrow=classic;startFill=1;endArrow=none;endFill=0;strokeColor=#FF3333;strokeWidth=4;" edge="1" parent="1" source="Ym4Ry7hjg_As4kxl7nmE-2" target="Ym4Ry7hjg_As4kxl7nmE-20">
          <mxGeometry relative="1" as="geometry" />
        </mxCell>
        <mxCell id="Ym4Ry7hjg_As4kxl7nmE-24" style="edgeStyle=orthogonalEdgeStyle;rounded=0;orthogonalLoop=1;jettySize=auto;html=1;exitX=0.75;exitY=1;exitDx=0;exitDy=0;entryX=-0.006;entryY=0.475;entryDx=0;entryDy=0;entryPerimeter=0;fontSize=26;startArrow=classic;startFill=1;endArrow=none;endFill=0;strokeColor=#3333FF;strokeWidth=4;" edge="1" parent="1" source="Ym4Ry7hjg_As4kxl7nmE-2" target="Ym4Ry7hjg_As4kxl7nmE-18">
          <mxGeometry relative="1" as="geometry">
            <Array as="points">
              <mxPoint x="479" y="260" />
              <mxPoint x="480" y="260" />
              <mxPoint x="480" y="380" />
              <mxPoint x="569" y="380" />
            </Array>
          </mxGeometry>
        </mxCell>
        <mxCell id="Ym4Ry7hjg_As4kxl7nmE-2" value="ORCHESTRATOR APP" style="rounded=1;whiteSpace=wrap;html=1;fillColor=#ffe6cc;strokeColor=#d79b00;" vertex="1" parent="1">
          <mxGeometry x="389" y="180" width="120" height="60" as="geometry" />
        </mxCell>
        <mxCell id="Ym4Ry7hjg_As4kxl7nmE-3" value="&lt;b&gt;&amp;nbsp; &amp;nbsp; &amp;nbsp; &amp;nbsp; &amp;nbsp; COMPONENTS&lt;/b&gt;&lt;br&gt;&lt;br&gt;&lt;div style=&quot;&quot;&gt;&lt;ul&gt;&lt;li style=&quot;&quot;&gt;WIDGETS&lt;/li&gt;&lt;/ul&gt;&lt;/div&gt;" style="rounded=1;whiteSpace=wrap;html=1;fillColor=#d5e8d4;strokeColor=#82b366;align=left;" vertex="1" parent="1">
          <mxGeometry x="594.5" y="430" width="160" height="90" as="geometry" />
        </mxCell>
        <mxCell id="Ym4Ry7hjg_As4kxl7nmE-4" value="&lt;b&gt;ONBOARDING MICRO APP&lt;/b&gt;&lt;br&gt;&lt;div style=&quot;text-align: left;&quot;&gt;&lt;ul&gt;&lt;li&gt;&lt;span style=&quot;background-color: initial;&quot;&gt;SIGN IN&lt;/span&gt;&lt;/li&gt;&lt;li&gt;&lt;span style=&quot;background-color: initial;&quot;&gt;SIGN UP&lt;/span&gt;&lt;/li&gt;&lt;/ul&gt;&lt;/div&gt;" style="rounded=1;whiteSpace=wrap;html=1;fillColor=#dae8fc;strokeColor=#6c8ebf;" vertex="1" parent="1">
          <mxGeometry x="71.5" y="330" width="175" height="70" as="geometry" />
        </mxCell>
        <mxCell id="Ym4Ry7hjg_As4kxl7nmE-5" value="&lt;div style=&quot;text-align: center;&quot;&gt;&lt;b style=&quot;background-color: initial;&quot;&gt;&amp;nbsp; &amp;nbsp; &amp;nbsp; &amp;nbsp; MUSIC MICRO APP&lt;/b&gt;&lt;/div&gt;&lt;ul style=&quot;&quot;&gt;&lt;li style=&quot;&quot;&gt;PLAYLISTS&lt;/li&gt;&lt;li style=&quot;&quot;&gt;LIBRARY&lt;/li&gt;&lt;li style=&quot;&quot;&gt;CRUD SONGS&lt;/li&gt;&lt;/ul&gt;" style="rounded=1;whiteSpace=wrap;html=1;fillColor=#f8cecc;strokeColor=#b85450;align=left;" vertex="1" parent="1">
          <mxGeometry x="72.75" y="420" width="172.5" height="90" as="geometry" />
        </mxCell>
        <mxCell id="Ym4Ry7hjg_As4kxl7nmE-6" value="&lt;b&gt;&lt;font style=&quot;font-size: 26px;&quot;&gt;RPG - SOUND AMBIENCE PROJECT&lt;/font&gt;&lt;/b&gt;" style="text;html=1;strokeColor=none;fillColor=none;align=center;verticalAlign=middle;whiteSpace=wrap;rounded=0;" vertex="1" parent="1">
          <mxGeometry x="180" y="60" width="510" height="80" as="geometry" />
        </mxCell>
        <mxCell id="Ym4Ry7hjg_As4kxl7nmE-1" value="&lt;b&gt;&amp;nbsp; &amp;nbsp; &amp;nbsp; &amp;nbsp; &amp;nbsp; &amp;nbsp; &amp;nbsp; &amp;nbsp; CORE&lt;/b&gt;&lt;br&gt;&lt;ul style=&quot;&quot;&gt;&lt;li style=&quot;&quot;&gt;HTTP REQUESTS&lt;/li&gt;&lt;li style=&quot;&quot;&gt;FIREBASE&lt;/li&gt;&lt;/ul&gt;" style="rounded=1;whiteSpace=wrap;html=1;fillColor=#e1d5e7;strokeColor=#9673a6;align=left;" vertex="1" parent="1">
          <mxGeometry x="594.5" y="340" width="160" height="80" as="geometry" />
        </mxCell>
        <mxCell id="Ym4Ry7hjg_As4kxl7nmE-19" value="COMMONS&lt;br&gt;MODULES" style="text;html=1;strokeColor=none;fillColor=none;align=center;verticalAlign=middle;whiteSpace=wrap;rounded=0;fontSize=26;" vertex="1" parent="1">
          <mxGeometry x="609.5" y="270" width="130" height="50" as="geometry" />
        </mxCell>
        <mxCell id="Ym4Ry7hjg_As4kxl7nmE-21" value="MICRO APP&lt;br&gt;MODULES" style="text;html=1;strokeColor=none;fillColor=none;align=center;verticalAlign=middle;whiteSpace=wrap;rounded=0;fontSize=26;" vertex="1" parent="1">
          <mxGeometry x="64" y="260" width="175" height="50" as="geometry" />
        </mxCell>
      </root>
    </mxGraphModel>
  </diagram>
</mxfile>
